<svg viewBox="0 0 888 200" xmlns="http://www.w3.org/2000/svg">
  <path d="m305.387 145.013h277.225v33.703h-277.225z" fill="none" />
  <path
    d="m307.872 145.009h1.38l22.451 31.697h.092v-31.697h.92v32.848h-1.38l-22.45-31.697h-.092v31.697h-.92v-32.848zm39.284 8.648c6.901 0 10.627 5.936 10.627 12.376 0 6.486-3.726 12.375-10.673 12.375-6.901 0-10.627-5.889-10.627-12.375 0-6.44 3.726-12.376 10.673-12.376zm0 23.831c6.303 0 9.707-5.475 9.707-11.455 0-5.889-3.404-11.455-9.707-11.455-6.395 0-9.753 5.566-9.753 11.455 0 5.981 3.358 11.455 9.753 11.455zm15.363.368h-.92v-23.646h.92v5.843h.092c.874-3.497 3.634-6.579 9.293-6.396v.921c-6.487-.322-9.385 4.738-9.385 9.891zm29.396-32.847h.92v32.848h-.92v-6.625h-.092c-1.196 4.141-4.646 7.177-9.477 7.177-6.257 0-10.075-5.198-10.075-12.329 0-6.625 3.542-12.422 10.075-12.422 5.015 0 8.373 2.898 9.477 7.178h.092zm-9.569 9.569c-6.487 0-9.155 6.026-9.155 11.501 0 6.072 3.037 11.409 9.155 11.409 6.073 0 9.569-5.29 9.569-11.409 0-7.314-3.819-11.501-9.569-11.501z"
    fill="#88c0d0"
  />
  <g fill="#2e3440">
    <path
      d="m435.799 154.946c-1.104-5.061-5.291-7.959-10.075-7.959-8.695 0-12.375 7.269-12.375 14.445s3.681 14.445 12.375 14.445c6.073 0 9.937-4.692 10.535-10.535h3.128c-.874 8.051-5.98 13.204-13.664 13.204-10.351 0-15.504-8.144-15.504-17.114s5.153-17.114 15.504-17.114c6.211 0 12.375 3.727 13.204 10.628zm29.071 11.041c0 6.809-3.956 12.56-11.226 12.56-7.269 0-11.225-5.751-11.225-12.56s3.957-12.56 11.225-12.56c7.27.001 11.226 5.752 11.226 12.56zm-19.552 0c0 5.061 2.76 10.121 8.326 10.121s8.327-5.061 8.327-10.121-2.761-10.121-8.327-10.121-8.326 5.061-8.326 10.121zm23.828-11.869h2.898v4.094h.092c1.058-2.852 4.232-4.784 7.59-4.784 6.672 0 8.695 3.496 8.695 9.155v15.273h-2.898v-14.813c0-4.095-1.334-7.177-6.026-7.177-4.601 0-7.36 3.496-7.452 8.143v13.848h-2.898v-23.739zm25.299-9.109h22.681v2.668h-19.553v11.869h18.311v2.669h-18.311v12.974h19.782v2.668h-22.91zm26.726 9.109h2.668v4.002h.138c1.519-2.853 4.003-4.692 7.775-4.692 3.128 0 5.935 1.519 6.809 4.646 1.426-3.128 4.416-4.646 7.545-4.646 5.198 0 7.867 2.714 7.867 8.327v16.102h-2.898v-15.964c0-3.91-1.473-6.026-5.613-6.026-5.015 0-6.44 4.141-6.44 8.557v13.434h-2.898v-16.102c.046-3.221-1.288-5.889-4.969-5.889-5.015 0-7.038 3.772-7.085 8.74v13.25h-2.897v-23.739zm57.547 23.738h-2.668v-4.278h-.092c-1.519 3.174-4.646 4.969-8.189 4.969-5.98 0-8.327-3.497-8.327-9.018v-15.411h2.898v15.457c.139 4.278 1.748 6.533 6.349 6.533 4.969 0 7.131-4.692 7.131-9.523v-12.467h2.898z"
    />
    <path d="m466.56 127.013-43.392-55.545v-15.41l48.091 62.17h25.844v-87.545h-43.465l-9.396-9.399h62.257v105.729z" />
    <path d="m421.439 21.284 43.394 55.541v15.41l-48.092-62.168h-25.843v87.545h43.463l9.401 9.401h-62.262v-105.729z" />
  </g>
</svg>
